<svg width="75" height="35" viewBox="0 0 75 35" fill="none" xmlns="http://www.w3.org/2000/svg">
<g clip-path="url(#clip0_25_148)">
<path fill-rule="evenodd" clip-rule="evenodd" d="M12.1875 21.3665C12.1649 21.5114 12.1097 21.6493 12.0263 21.7699C11.9428 21.8905 11.8331 21.9907 11.7054 22.0629C11.4482 22.229 11.2232 22.312 10.9955 22.395C10.5107 22.5624 10.0004 22.7299 9.46072 22.9241C8.89152 23.1182 8.38125 23.3124 7.92589 23.4531C7.35804 23.6473 6.8183 23.8147 6.30536 24.0089C5.91944 24.174 5.55695 24.3893 5.22723 24.649C4.92059 24.9269 4.65298 25.2449 4.4317 25.5946C4.20402 25.983 4.06071 26.4839 4.06071 27.0678C4.06071 28.237 4.34464 29.1263 4.91384 29.6821C5.4817 30.2674 6.53438 30.5446 8.09464 30.5446C9.68572 30.5446 10.7652 30.2392 11.3357 29.6272C11.9022 29.0151 12.1862 28.154 12.1862 27.0424V21.3665H12.1875ZM8.09598 9.04503C10.8817 9.04503 12.9268 9.57405 14.2326 10.6589C15.5397 11.7169 16.1933 13.0776 16.1933 14.6901V28.4312C16.1933 28.987 16.0808 29.5991 15.8826 30.266C15.6817 30.9357 15.2853 31.5464 14.6598 32.1008C14.0638 32.6593 13.2402 33.1321 12.1888 33.4937C11.1375 33.8553 9.77411 34.0495 8.09732 34.0495C6.42321 34.0495 5.05714 33.8553 4.00714 33.4937C2.95714 33.1321 2.13214 32.6593 1.53616 32.1008C0.981737 31.6012 0.561737 30.9703 0.314732 30.266C0.113839 29.6004 0 28.9883 0 28.4325V26.2361C0 25.0669 0.312054 23.9821 0.9375 23.0352C1.56295 22.0629 2.44286 21.3959 3.57991 20.9781C4.14777 20.7839 4.80134 20.5897 5.53929 20.3392C6.27857 20.0874 6.95893 19.837 7.64196 19.616C8.325 19.3924 8.92098 19.1687 9.43125 18.9732C9.73918 18.85 10.0519 18.7391 10.3688 18.641L10.8804 18.3906C11.0813 18.2794 11.2781 18.112 11.4777 17.8897C11.6759 17.6687 11.846 17.4182 11.9893 17.1397C12.1407 16.838 12.2187 16.5049 12.217 16.1674V15.2767C12.2191 14.9503 12.1505 14.6273 12.0161 14.3299C11.9036 13.995 11.6759 13.6897 11.3638 13.4124C11.0518 13.1339 10.6246 12.9116 10.1143 12.7428C9.60268 12.5781 8.92232 12.4937 8.15357 12.4937C6.5625 12.4937 5.51116 12.8017 4.9433 13.4392C4.46116 13.9964 4.17723 14.6915 4.12098 15.4696C4.12098 15.637 3.97902 15.7482 3.80759 15.7482L0.342857 15.8044C0.260555 15.8048 0.181444 15.7726 0.122747 15.7149C0.0640508 15.6572 0.0305232 15.5787 0.0294643 15.4964V14.6928C0.0294643 13.912 0.172768 13.1888 0.484821 12.4937C0.798214 11.7973 1.2817 11.2147 1.93393 10.7124C2.5875 10.2129 3.44063 9.79637 4.4625 9.5178C5.45759 9.18298 6.67902 9.04503 8.09866 9.04503H8.09598ZM70.9085 21.3665C70.8859 21.5114 70.8307 21.6493 70.7472 21.7699C70.6637 21.8905 70.554 21.9907 70.4263 22.0629C70.1719 22.229 69.9442 22.312 69.7165 22.395C69.2344 22.5624 68.7214 22.7299 68.1817 22.9241C67.6125 23.1182 67.1009 23.3124 66.6469 23.4531C66.0777 23.6473 65.538 23.8147 65.0263 24.0089C64.64 24.1739 64.277 24.3892 63.9469 24.649C63.6407 24.927 63.3736 25.245 63.1527 25.5946C62.925 25.983 62.783 26.4839 62.783 27.0678C62.783 28.237 63.0643 29.1263 63.6335 29.6821C64.2013 30.2674 65.254 30.5446 66.8156 30.5446C68.4094 30.5446 69.4875 30.2392 70.0567 29.6272C70.6232 29.0151 70.9072 28.154 70.9072 27.0424L70.9085 21.3665ZM66.8183 9.04503C69.604 9.04503 71.6491 9.57405 72.9563 10.6589C74.2621 11.7169 74.9156 13.0776 74.9156 14.6901V28.4312C74.9156 28.987 74.8031 29.5991 74.6036 30.266C74.4054 30.9357 74.0076 31.5464 73.3821 32.1008C72.7862 32.6593 71.9625 33.1321 70.9112 33.4937C69.8612 33.8553 68.4964 34.0495 66.821 34.0495C65.1469 34.0495 63.7808 33.8553 62.7308 33.4937C61.6808 33.1321 60.8558 32.6593 60.2598 32.1008C59.7063 31.6009 59.2873 30.97 59.0411 30.266C58.8402 29.5991 58.7263 28.987 58.7263 28.4312V26.2348C58.7263 25.0656 59.0397 23.9807 59.6638 23.0339C60.2893 22.0616 61.1705 21.3946 62.3063 20.9767C62.8741 20.7825 63.5277 20.5883 64.267 20.3379C65.0036 20.0861 65.6866 19.8357 66.3697 19.6147C67.0527 19.391 67.6473 19.1674 68.1589 18.9718C68.4669 18.8486 68.7796 18.7378 69.0964 18.6397L69.608 18.3892C69.8063 18.2781 70.0058 18.1107 70.204 17.8883C70.4073 17.6623 70.5794 17.4101 70.7156 17.1383C70.867 16.8367 70.9451 16.5035 70.9433 16.166V15.2754C70.9454 14.949 70.8769 14.626 70.7424 14.3285C70.6299 13.9937 70.4036 13.6883 70.0902 13.4111C69.7781 13.1325 69.3536 12.9102 68.8406 12.7415C68.329 12.5767 67.6487 12.4924 66.8799 12.4924C65.2888 12.4924 64.2388 12.8004 63.6697 13.4379C63.1875 13.995 62.9036 14.6901 62.846 15.4682C62.846 15.6357 62.7054 15.7468 62.5353 15.7468H59.0893C59.0079 15.7465 58.9299 15.7144 58.8718 15.6573C58.8138 15.6003 58.7803 15.5228 58.7786 15.4415V14.6339C58.7786 13.8571 58.9205 13.1339 59.2339 12.4374C59.546 11.7437 60.0281 11.1584 60.6804 10.6589C61.3366 10.158 62.1871 9.74012 63.2116 9.46289C64.1759 9.18164 65.3973 9.04503 66.8183 9.04503ZM54.6308 9.15619H56.9049C57.1031 9.15619 57.2451 9.35173 57.1888 9.54459L56.4214 12.4374C56.3946 12.5781 56.2513 12.6611 56.1375 12.6611H54.5464C53.6946 12.6611 53.013 12.7723 52.4732 12.9959C51.9603 13.2169 51.5357 13.4674 51.2505 13.7727C50.9665 14.0807 50.7951 14.3848 50.7107 14.6915C50.6343 14.9912 50.596 15.2995 50.5969 15.6089V33.4937C50.5951 33.5758 50.5611 33.6538 50.5022 33.711C50.4433 33.7681 50.3642 33.7998 50.2821 33.7991H46.875C46.7934 33.7991 46.715 33.7671 46.6567 33.71C46.5984 33.653 46.5647 33.5753 46.563 33.4937V14.8013C46.563 14.4691 46.6192 13.9682 46.7612 13.3281C46.875 12.6892 47.2165 12.0772 47.7563 11.437C48.296 10.8249 49.0915 10.2691 50.171 9.8245C51.2518 9.37718 52.729 9.15619 54.6308 9.15619ZM43.1531 27.8191V28.6535C43.1531 29.0151 43.0996 29.516 42.9563 30.1562C42.8424 30.7669 42.5009 31.4071 41.9612 32.0178C41.4214 32.6312 40.6259 33.187 39.5464 33.6316C38.467 34.0776 36.9884 34.3013 35.0866 34.3013C33.1848 34.3013 31.7063 34.0776 30.6268 33.6316C29.5473 33.187 28.7518 32.6593 28.2121 32.0191C27.6723 31.4084 27.3308 30.7682 27.217 30.1307C27.1045 29.4879 27.0201 29.0165 27.0201 28.6549V9.93566C27.0201 9.76825 27.1621 9.62762 27.3321 9.62762H30.7125C30.8839 9.62762 31.0259 9.76825 31.0259 9.93566V27.4575C31.0259 28.0415 31.1103 28.4593 31.196 28.7928C31.283 29.1276 31.4531 29.4598 31.7089 29.7383C31.9634 30.0437 32.3625 30.2941 32.9009 30.4883C33.4125 30.6839 34.1237 30.7964 35.0036 30.7964C35.9143 30.7964 36.6509 30.6839 37.192 30.4883C37.7317 30.2941 38.1295 30.0437 38.4134 29.7651C38.6946 29.4879 38.8955 29.1825 38.9799 28.8477C39.0656 28.5129 39.1808 28.237 39.1808 27.4281V9.90887C39.1808 9.7428 39.3214 9.60352 39.4915 9.60352H42.8719C43.0406 9.60352 43.1826 9.7428 43.1826 9.91155V27.8218H43.1558L43.1531 27.8191ZM19.8884 0.229855H23.2701C23.4402 0.229855 23.5821 0.367801 23.5821 0.533873V33.6598C23.5811 33.7418 23.5477 33.8202 23.4893 33.8778C23.4309 33.9355 23.3522 33.9678 23.2701 33.9678H19.8884C19.8063 33.9678 19.7276 33.9355 19.6691 33.8778C19.6107 33.8202 19.5774 33.7418 19.5763 33.6598V0.533873C19.6031 0.367801 19.7183 0.229855 19.8884 0.229855Z" fill="white"/>
</g>
<defs>
<clipPath id="clip0_25_148">
<rect width="75" height="35" fill="white"/>
</clipPath>
</defs>
</svg>
