<svg width="24" height="24" viewBox="0 0 24 24" fill="none" xmlns="http://www.w3.org/2000/svg">
<path d="M12 23.1513L10.2563 21.4934C8.26875 19.5987 6.825 18.1973 5.925 17.2895C5.025 16.3816 4.0125 15.2565 2.8875 13.9144C1.8 12.5724 1.05 11.3684 0.637503 10.3026C0.225003 9.19737 0.0187531 8.07236 0.0187531 6.92764C0.0187531 4.99341 0.637503 3.35526 1.875 2.01316C3.15 0.671053 4.725 0 6.6 0C8.775 0 10.575 0.888158 12 2.66448C13.425 0.888158 15.225 0 17.4 0C19.275 0 20.8313 0.671053 22.0687 2.01316C23.3437 3.35526 23.9813 4.99341 23.9813 6.92764C23.9813 8.4671 23.4937 10.0658 22.5187 11.7237C21.5437 13.3816 20.475 14.8224 19.3126 16.046C18.1874 17.2698 16.3313 19.1053 13.7437 21.5526L12 23.1513Z" fill="black"/>
</svg>
