<svg width="24" height="24" viewBox="0 0 24 24" fill="none" xmlns="http://www.w3.org/2000/svg">
<path d="M12.1126 19.6579C13.9126 17.9606 15.2437 16.6776 16.1063 15.8092C16.9687 14.9408 17.9063 13.9144 18.9187 12.7302C19.9313 11.546 20.625 10.5 21 9.59211C21.4126 8.68421 21.6187 7.79606 21.6187 6.92764C21.6187 5.66448 21.2063 4.61842 20.3813 3.78947C19.5937 2.96053 18.6 2.54605 17.4 2.54605C16.4626 2.54605 15.5813 2.82237 14.7563 3.37501C13.9687 3.92763 13.425 4.63815 13.125 5.50659H10.875C10.575 4.63815 10.0125 3.92763 9.1875 3.37501C8.4 2.82237 7.5375 2.54605 6.6 2.54605C5.4 2.54605 4.3875 2.96053 3.5625 3.78947C2.775 4.61842 2.38126 5.66448 2.38126 6.92764C2.38126 7.79606 2.56875 8.68421 2.94375 9.59211C3.35626 10.5 4.06875 11.546 5.08126 12.7302C6.09375 13.9144 7.03126 14.9408 7.89375 15.8092C8.75626 16.6776 10.0875 17.9606 11.8875 19.6579L12 19.7763L12.1126 19.6579ZM17.4 0C19.275 0 20.8313 0.671053 22.0687 2.01316C23.3437 3.35526 23.9813 4.99341 23.9813 6.92764C23.9813 8.07236 23.775 9.19737 23.3626 10.3026C22.95 11.3684 22.1813 12.5724 21.0563 13.9144C19.9687 15.2565 18.975 16.3816 18.075 17.2895C17.175 18.1973 15.7313 19.5987 13.7437 21.4934L12 23.1513L10.2563 21.5526C7.66875 19.1053 5.79375 17.2698 4.63126 16.046C3.50626 14.8224 2.45626 13.3816 1.48126 11.7237C0.506253 10.0658 0.0187531 8.4671 0.0187531 6.92764C0.0187531 4.99341 0.637503 3.35526 1.875 2.01316C3.15 0.671053 4.725 0 6.6 0C8.775 0 10.575 0.888158 12 2.66448C13.425 0.888158 15.225 0 17.4 0Z" fill="black"/>
</svg>
